<?xml version="1.0" encoding="UTF-8"?>
<svg id="Layer_2" data-name="Layer 2" xmlns="http://www.w3.org/2000/svg" viewBox="0 0 745.32 317.01">
  <defs>
    <style>
      .cls-1, .cls-2, .cls-3, .cls-4, .cls-5 {
        fill: #fff;
      }

      .cls-2 {
        opacity: .9;
      }

      .cls-2, .cls-3, .cls-4, .cls-5 {
        isolation: isolate;
      }

      .cls-3 {
        opacity: .1;
      }

      .cls-4 {
        opacity: .3;
      }

      .cls-5 {
        opacity: .6;
      }
    </style>
  </defs>
  <g id="Layer_1-2" data-name="Layer 1">
    <path class="cls-1" d="M628.04,292.97h3.92l15.32-17.5h8.03l-17.87,20.18,19.86,21.36h-8.34l-17-18.49h-3.92v18.49h-6.35v-41.54h6.35v17.5h0Z"/>
    <path class="cls-1" d="M675.68,293.22h20.24v4.92h-20.24v13.51h21.3v5.36h-27.65v-41.54h27.52v5.36h-21.17v12.39Z"/>
    <path class="cls-1" d="M729.79,300.45v16.56h-6.35v-16.56l-15.13-24.97h7.35l7.54,12.45c.75,1.18,1.06,1.74,2.62,4.55l.81,1.5h.19c1.49-2.68,2.68-4.67,3.49-6.04l7.54-12.45h7.47l-15.51,24.97h-.02Z"/>
    <path class="cls-1" d="M531.06,81.69v152.23h-41.56V81.69h41.56Z"/>
    <path class="cls-1" d="M688.64,81.69c14,0,25.85,4.48,35.56,13.44,9.78,8.96,14.67,19.82,14.67,32.56v.67h-40.45c.22-.44.26-.67.11-.67,0-3.33-1.26-6.11-3.78-8.33-2.37-2.44-5.44-3.56-9.22-3.33h-86.56c-3.56-.22-6.59.93-9.11,3.44-2.44,2.22-3.67,4.96-3.67,8.22.07,3.26,1.33,6.04,3.78,8.33,2.44,2.3,5.44,3.44,9,3.44,10.22,0,26-.04,47.33-.11,21.33-.22,37.07-.22,47.22,0,14.44-.07,26.67,4.56,36.67,13.89,10.3,9.19,15.33,20.33,15.11,33.44.07,13.11-5,24.26-15.22,33.45-9.93,9.19-22.11,13.78-36.56,13.78h-100.78c-14.22,0-26.45-4.59-36.67-13.78-10.07-9.18-15.11-20.33-15.11-33.45h38.89v.22c0,3.71,1.45,6.89,4.33,9.56s6.33,4,10.33,4h95.11c4.15-.22,7.63-1.52,10.44-3.89,2.81-2.67,4.22-5.81,4.22-9.45s-1.44-6.96-4.33-9.56c-2.89-2.67-6.33-4-10.33-4h-98.11c-13.93-.07-25.78-4.56-35.56-13.44-9.78-9.04-14.67-19.85-14.67-32.45s4.89-23.45,14.67-32.11c9.7-8.81,21.56-13.44,35.56-13.89h97.11l.02.02Z"/>
    <path class="cls-1" d="M456.69,234.86c-11.85,0-27.19-5.05-45.1-15.02-24.7-13.75-52.17-35.51-78.44-62.02l73.69-76.04h-57.87l-43.89,45.29c-21.34-25.44-38.52-51.25-49.35-74.36-10.45-22.3-14.06-40.41-10.74-52.71l-24.6,24.6c-18.84,17.57,5.42,74.88,54.7,133.41l-53.54,55.25-83.55-131.57h-41.33L0,233.92h44.67l21.22-33.33h103l21,33.33h69.51l43.83-45.23c56.84,57.01,115.69,87.93,135.2,69.73l24.01-24.01c-1.82.3-3.74.46-5.76.46h0ZM86.35,168.36l31.11-48.89,30.89,48.89h-62Z"/>
    <path class="cls-2" d="M449.39,226.25c-.57-4.95-1.88-10.56-3.93-16.73l-11.72,12.1c5.72,2.26,10.97,3.82,15.65,4.63h0Z"/>
    <path class="cls-3" d="M392.26,121.98l-17.76,18.33c6.53,7.9,12.6,15.77,18.17,23.5l17.77-18.33c-5.6-7.79-11.67-15.66-18.17-23.5h0Z"/>
    <path class="cls-4" d="M291.84,61.83l17.67-18.24c-8.06-5.73-15.96-10.76-23.59-15.01-.29-.16-.58-.32-.87-.48l-17.55,18.11c7.75,4.34,15.92,9.58,24.34,15.61h0Z"/>
    <path class="cls-5" d="M261.09,42.79l17.51-18.07c-7.49-3.74-14.36-6.46-20.49-8.15l-4.98,5.13c1.31,6.09,3.53,12.94,6.66,20.42.43.21.86.44,1.29.66h0Z"/>
    <path class="cls-4" d="M415.11,152.15l-17.76,18.33c5.83,8.48,11.02,16.76,15.51,24.72l17.72-18.29c-4.51-8.06-9.7-16.35-15.47-24.76h0Z"/>
    <path class="cls-5" d="M434.08,183.36l-17.71,18.27c2.85,5.39,5.35,10.61,7.49,15.61,1.34.66,2.66,1.27,3.96,1.87l15.38-15.87c-1.38-3.55-2.96-7.26-4.76-11.11-1.35-2.88-2.81-5.81-4.35-8.77h-.01Z"/>
    <path class="cls-4" d="M438.52,127.99l-17.74,18.31c5.78,8.35,11.01,16.59,15.6,24.63l17.71-18.27c-4.52-7.95-9.72-16.21-15.57-24.66h0Z"/>
    <path class="cls-4" d="M315.14,37.79l17.65-18.21c-8.46-6.02-16.65-11.22-24.42-15.53l-17.55,18.11c7.88,4.44,16.03,9.68,24.32,15.63Z"/>
    <path class="cls-3" d="M344.51,61.23l17.71-18.28c-7.74-6.77-15.41-12.99-22.91-18.61l-17.67,18.23c7.56,5.7,15.21,11.94,22.86,18.66h.01Z"/>
    <path class="cls-1" d="M457.27,225.59c.05.45.1.9.14,1.34,5.11-.13,9.18-1.5,12.02-4.16,3.12-2.91,4.8-7.4,5.09-13.2-.01-.55-.06-1.12-.09-1.69l-17.16,17.71h0Z"/>
    <path class="cls-2" d="M469.26,184.97l-17.58,18.14c2.11,5.81,3.65,11.25,4.64,16.28l17.37-17.92c-.85-5.06-2.34-10.59-4.42-16.51h-.01Z"/>
    <path class="cls-5" d="M457.63,159.05l-17.7,18.27c2.07,3.87,3.99,7.68,5.75,11.41,1.31,2.81,2.52,5.54,3.62,8.21l17.62-18.18c-2.51-6.24-5.62-12.83-9.28-19.71h0Z"/>
  </g>
</svg>